<svg xmlns="http://www.w3.org/2000/svg" version="1.1" xmlns:xlink="http://www.w3.org/1999/xlink" xmlns:svgjs="http://svgjs.com/svgjs" width="1440" height="560" preserveAspectRatio="none" viewBox="0 0 1440 560">
    <g clip-path="url(&quot;#SvgjsClipPath1000&quot;)" fill="none">
        <rect width="1440" height="560" x="0" y="0" fill="#0e2a47"></rect>
        <circle r="93.335" cx="-91.25" cy="-73.66" stroke="#365aa3" stroke-opacity="0.25" stroke-width="2"></circle>
        <circle r="93.335" cx="391.1" cy="403.55" stroke="#365aa3" stroke-opacity="0.25" stroke-width="2"></circle>
        <circle r="93.335" cx="758.95" cy="698.09" stroke="#365aa3" stroke-opacity="0.25" stroke-width="2"></circle>
        <circle r="69.03" cx="965.63" cy="424.73" stroke="#365aa3" stroke-opacity="0.25" stroke-width="2"></circle>
        <circle r="121.69" cx="729.45" cy="226.72" stroke="#365aa3" stroke-opacity="0.25" stroke-width="2"></circle>
        <circle r="99.205" cx="523.14" cy="98.25" stroke="#365aa3" stroke-opacity="0.25" stroke-width="2"></circle>
        <circle r="89.015" cx="763.04" cy="26.61" stroke="#365aa3" stroke-opacity="0.25" stroke-width="2"></circle>
        <circle r="130.88" cx="629.89" cy="414.69" stroke="#365aa3" stroke-opacity="0.25" stroke-width="2"></circle>
        <circle r="117.165" cx="285.87" cy="114.15" stroke="#365aa3" stroke-opacity="0.25" stroke-width="2"></circle>
        <circle r="140.09" cx="458.71" cy="41.44" stroke="#365aa3" stroke-opacity="0.25" stroke-width="2"></circle>
        <circle r="136.6" cx="1200.56" cy="174.83" stroke="#365aa3" stroke-opacity="0.25" stroke-width="2"></circle>
        <circle r="150.98" cx="828.44" cy="379.32" stroke="#365aa3" stroke-opacity="0.25" stroke-width="2"></circle>
        <circle r="95.72" cx="1112.28" cy="300.68" stroke="#365aa3" stroke-opacity="0.25" stroke-width="2"></circle>
        <circle r="182.92" cx="1024.51" cy="76.43" stroke="#365aa3" stroke-opacity="0.25" stroke-width="2"></circle>
        <circle r="87.545" cx="809.87" cy="31.19" stroke="#365aa3" stroke-opacity="0.25" stroke-width="2"></circle>
        <circle r="105.56" cx="119.27" cy="124.18" stroke="#365aa3" stroke-opacity="0.25" stroke-width="2"></circle>
        <circle r="77.635" cx="171.19" cy="32.82" stroke="#365aa3" stroke-opacity="0.25" stroke-width="2"></circle>
        <circle r="99.59" cx="992.33" cy="142.06" stroke="#365aa3" stroke-opacity="0.25" stroke-width="2"></circle>
        <circle r="182.05" cx="516.96" cy="267.22" stroke="#365aa3" stroke-opacity="0.25" stroke-width="2"></circle>
        <circle r="142.445" cx="892.05" cy="149.88" stroke="#365aa3" stroke-opacity="0.25" stroke-width="2"></circle>
        <circle r="99.165" cx="238.81" cy="245.78" stroke="#365aa3" stroke-opacity="0.25" stroke-width="2"></circle>
        <circle r="166.795" cx="776.15" cy="296.13" stroke="#365aa3" stroke-opacity="0.25" stroke-width="2"></circle>
        <circle r="154.635" cx="1284.16" cy="91.92" stroke="#365aa3" stroke-opacity="0.25" stroke-width="2"></circle>
        <circle r="120.4" cx="1419.93" cy="362.78" stroke="#365aa3" stroke-opacity="0.25" stroke-width="2"></circle>
        <circle r="143.78" cx="1396.2" cy="272.67" stroke="#365aa3" stroke-opacity="0.25" stroke-width="2"></circle>
        <circle r="164.75" cx="907.36" cy="79.53" stroke="#365aa3" stroke-opacity="0.25" stroke-width="2"></circle>
        <circle r="142.405" cx="749.49" cy="85.02" stroke="#365aa3" stroke-opacity="0.25" stroke-width="2"></circle>
        <circle r="150.39" cx="347.34" cy="22.92" stroke="#365aa3" stroke-opacity="0.25" stroke-width="2"></circle>
        <circle r="89.905" cx="742.74" cy="484.58" stroke="#365aa3" stroke-opacity="0.25" stroke-width="2"></circle>
        <circle r="124.47" cx="1222.99" cy="37.59" stroke="#365aa3" stroke-opacity="0.25" stroke-width="2"></circle>
        <circle r="177.96" cx="127.23" cy="64.2" stroke="#365aa3" stroke-opacity="0.25" stroke-width="2"></circle>
        <circle r="91.505" cx="688.71" cy="501.05" stroke="#365aa3" stroke-opacity="0.25" stroke-width="2"></circle>
        <circle r="98.905" cx="674.2" cy="401.84" stroke="#365aa3" stroke-opacity="0.25" stroke-width="2"></circle>
        <circle r="143.65" cx="552.82" cy="268.44" stroke="#365aa3" stroke-opacity="0.25" stroke-width="2"></circle>
        <circle r="70.03" cx="29.68" cy="343.28" stroke="#365aa3" stroke-opacity="0.25" stroke-width="2"></circle>
        <circle r="132.485" cx="1306.66" cy="48.26" stroke="#365aa3" stroke-opacity="0.25" stroke-width="2"></circle>
        <circle r="150.505" cx="493.43" cy="22.12" stroke="#365aa3" stroke-opacity="0.25" stroke-width="2"></circle>
        <circle r="81.47" cx="910.3" cy="233.94" stroke="#365aa3" stroke-opacity="0.25" stroke-width="2"></circle>
        <circle r="122.88" cx="756.66" cy="98.05" stroke="#365aa3" stroke-opacity="0.25" stroke-width="2"></circle>
        <circle r="138.66" cx="1209.54" cy="427.91" stroke="#365aa3" stroke-opacity="0.25" stroke-width="2"></circle>
    </g>
    <defs>
        <clipPath id="SvgjsClipPath1000">
            <rect width="1440" height="560" x="0" y="0"></rect>
        </clipPath>
    </defs>
</svg>