<svg width="100%" height="100%" viewBox="0 0 958 300" fill="none" xmlns="http://www.w3.org/2000/svg">
<g clip-path="url(#clip0)">
<rect width="958" height="300" rx="30" fill="#143055"/>
<circle cx="241.096" cy="88.3897" r="10.044" stroke="#0E52AC"/>
<circle cx="228.231" cy="130.111" r="5.38087" stroke="#0E52AC"/>
<circle cx="203.332" cy="62.5354" r="12.5002" stroke="#0E52AC"/>
<circle cx="176.752" cy="226.53" r="14.9206" stroke="#0E52AC"/>
<circle cx="156.242" cy="162.255" r="12.251" stroke="#0E52AC"/>
<circle cx="394.144" cy="125.74" r="10.7597" stroke="#0E52AC"/>
<circle cx="341.826" cy="180.426" r="9.37357" stroke="#0E52AC"/>
<circle cx="405.404" cy="248.494" r="13.6538" stroke="#0E52AC"/>
<circle cx="450.182" cy="255.571" r="6.5769" stroke="#0E52AC"/>
<circle cx="423.914" cy="275.591" r="6.5769" stroke="#0E52AC"/>
<circle cx="461.329" cy="226.811" r="6.5769" stroke="#0E52AC"/>
<circle cx="470.595" cy="279.05" r="6.5769" stroke="#0E52AC"/>
<circle cx="423.914" cy="210.444" r="10.0887" stroke="#0E52AC"/>
<circle cx="438.448" cy="145.124" r="8.63208" stroke="#0E52AC"/>
<circle cx="405.404" cy="172.769" r="13.6538" stroke="#0E52AC"/>
<circle cx="379.99" cy="69.5054" r="13.6538" stroke="#0E52AC"/>
<circle cx="455.142" cy="193.093" r="11.5367" stroke="#0E52AC"/>
<circle cx="494.276" cy="234.059" r="16.045" stroke="#0E52AC"/>
<circle cx="481.624" cy="142.285" r="6.71843" stroke="#0E52AC"/>
<circle cx="463.518" cy="161.795" r="6.71843" stroke="#0E52AC"/>
<circle cx="333.756" cy="135.417" r="9.17644" stroke="#0E52AC"/>
<circle cx="285.916" cy="44.2975" r="9.17644" stroke="#0E52AC"/>
<circle cx="273.843" cy="22.0436" r="9.17644" stroke="#0E52AC"/>
<circle cx="243.844" cy="49.2434" r="12.7922" stroke="#0E52AC"/>
<circle cx="220.82" cy="25.6594" r="12.7922" stroke="#0E52AC"/>
<circle cx="316.916" cy="20.6611" r="10.8544" stroke="#0E52AC"/>
<circle cx="349.867" cy="44.2028" r="7.54065" stroke="#0E52AC"/>
<circle cx="355.612" cy="20.0934" r="7.54065" stroke="#0E52AC"/>
<circle cx="391.25" cy="20.6627" r="7.79553" stroke="#0E52AC"/>
<circle cx="422.882" cy="57.8858" r="11.1202" stroke="#0E52AC"/>
<circle cx="442.631" cy="32.2823" r="11.1202" stroke="#0E52AC"/>
<circle cx="485.772" cy="28.1332" r="15.2679" stroke="#0E52AC"/>
<circle cx="495.054" cy="101.412" r="15.2679" stroke="#0E52AC"/>
<circle cx="448.563" cy="103.714" r="10.2668" stroke="#0E52AC"/>
<circle cx="496.371" cy="177.245" r="13.9504" stroke="#0E52AC"/>
<circle cx="315.001" cy="167.647" r="5.68616" stroke="#0E52AC"/>
<circle cx="259.097" cy="138.809" r="5.68616" stroke="#0E52AC"/>
<circle cx="272.411" cy="176.597" r="3.32905" stroke="#0E52AC"/>
<circle cx="213.525" cy="111.007" r="3.32905" stroke="#0E52AC"/>
<circle cx="304.121" cy="133.079" r="5.66669" stroke="#0E52AC"/>
<circle cx="273.843" cy="111.577" r="11.5735" stroke="#0E52AC"/>
<circle cx="308.455" cy="80.6713" r="15.9076" stroke="#0E52AC"/>
<circle cx="5.43211" cy="79.0124" r="10.612" stroke="#0E52AC"/>
<circle cx="15.5392" cy="173.472" r="12.4567" stroke="#0E52AC"/>
<circle cx="55.8065" cy="127.793" r="12.4567" stroke="#0E52AC"/>
<circle cx="25.7127" cy="105.865" r="9.6736" stroke="#0E52AC"/>
<circle cx="43.879" cy="76.3365" r="7.49272" stroke="#0E52AC"/>
<circle cx="37.3946" cy="48.5164" r="10.0301" stroke="#0E52AC"/>
<circle cx="83.9994" cy="41.9842" r="14.7362" stroke="#0E52AC"/>
<circle cx="76.8599" cy="81.4202" r="11.1624" stroke="#0E52AC"/>
<circle cx="85.5104" cy="121.461" r="8.15051" stroke="#0E52AC"/>
<circle cx="116.82" cy="95.9576" r="11.1275" stroke="#0E52AC"/>
<circle cx="116.414" cy="67.0966" r="6.56736" stroke="#0E52AC"/>
<circle cx="128.134" cy="34.8951" r="12.3541" stroke="#0E52AC"/>
<circle cx="95.7867" cy="17.3429" r="8.9054" stroke="#0E52AC"/>
<circle cx="65.1975" cy="4.45923" r="7.4065" stroke="#0E52AC"/>
<circle cx="165.92" cy="7.93835" r="10.3329" stroke="#0E52AC"/>
<circle cx="158.209" cy="54.6362" r="7.21039" stroke="#0E52AC"/>
<circle cx="151.79" cy="93.8133" r="13.0438" stroke="#0E52AC"/>
<circle cx="113.945" cy="141.782" r="9.03623" stroke="#0E52AC"/>
<circle cx="146.402" cy="124.184" r="11.3075" stroke="#0E52AC"/>
<circle cx="74.6273" cy="172.186" r="13.7428" stroke="#0E52AC"/>
<circle cx="36.8187" cy="199.715" r="10.606" stroke="#0E52AC"/>
<circle cx="44.7005" cy="156.542" r="10.606" stroke="#0E52AC"/>
<circle cx="78.7296" cy="209.455" r="6.28082" stroke="#0E52AC"/>
<circle cx="104.053" cy="187.923" r="9.39214" stroke="#0E52AC"/>
<circle cx="132.108" cy="206.343" r="9.39214" stroke="#0E52AC"/>
<circle cx="124.6" cy="170.522" r="7.0082" stroke="#0E52AC"/>
<circle cx="159.363" cy="299.632" r="7.56335" stroke="#0E52AC"/>
<circle cx="205.735" cy="297.228" r="9.96646" stroke="#0E52AC"/>
<circle cx="265.283" cy="297.228" r="9.96646" stroke="#0E52AC"/>
<circle cx="306.449" cy="294.574" r="9.96646" stroke="#0E52AC"/>
<circle cx="388.574" cy="290.735" r="13.8057" stroke="#0E52AC"/>
<circle cx="513.58" cy="275.591" r="13.8057" stroke="#0E52AC"/>
<circle cx="555.908" cy="289.671" r="9.70041" stroke="#0E52AC"/>
<circle cx="543.478" cy="249.555" r="11.9304" stroke="#0E52AC"/>
<circle cx="538.739" cy="202.565" r="16.6689" stroke="#0E52AC"/>
<circle cx="546.777" cy="168.113" r="8.63097" stroke="#0E52AC"/>
<circle cx="521.696" cy="141.993" r="15.45" stroke="#0E52AC"/>
<circle cx="555.033" cy="120.723" r="7.75598" stroke="#0E52AC"/>
<circle cx="540.162" cy="86.3066" r="10.2714" stroke="#0E52AC"/>
<circle cx="503.204" cy="64.171" r="12.2217" stroke="#0E52AC"/>
<circle cx="593.984" cy="75.5342" r="12.2217" stroke="#0E52AC"/>
<circle cx="601.779" cy="38.7276" r="12.2217" stroke="#0E52AC"/>
<circle cx="634.532" cy="114.261" r="7.76076" stroke="#0E52AC"/>
<circle cx="638.346" cy="77.9208" r="14.0224" stroke="#0E52AC"/>
<circle cx="639.161" cy="42.5796" r="6.76119" stroke="#0E52AC"/>
<circle cx="684.147" cy="27.7511" r="12.2765" stroke="#0E52AC"/>
<circle cx="642.325" cy="9.77561" r="11.8088" stroke="#0E52AC"/>
<circle cx="591.934" cy="5.12994" r="14.2725" stroke="#0E52AC"/>
<circle cx="692.835" cy="78.9437" r="10.9242" stroke="#0E52AC"/>
<circle cx="671.37" cy="117.181" r="20.3141" stroke="#0E52AC"/>
<circle cx="665.657" cy="175.012" r="15.53" stroke="#0E52AC"/>
<circle cx="680.21" cy="232.694" r="9.64721" stroke="#0E52AC"/>
<circle cx="652.409" cy="219.076" r="12.7478" stroke="#0E52AC"/>
<circle cx="615.856" cy="242.892" r="9.91504" stroke="#0E52AC"/>
<circle cx="573.893" cy="266.352" r="7.28398" stroke="#0E52AC"/>
<circle cx="614.025" cy="273.879" r="11.7465" stroke="#0E52AC"/>
<circle cx="662.152" cy="271.84" r="17.5583" stroke="#0E52AC"/>
<circle cx="698.749" cy="285.139" r="9.0471" stroke="#0E52AC"/>
<circle cx="707.147" cy="257.953" r="7.8983" stroke="#0E52AC"/>
<circle cx="720.943" cy="224.312" r="12.3124" stroke="#0E52AC"/>
<circle cx="690.357" cy="203.855" r="12.3124" stroke="#0E52AC"/>
<circle cx="740.214" cy="200.246" r="14.8497" stroke="#0E52AC"/>
<circle cx="749.161" cy="248.564" r="8.44632" stroke="#0E52AC"/>
<circle cx="739.095" cy="280.519" r="13.6672" stroke="#0E52AC"/>
<circle cx="778.583" cy="216.648" r="17.0152" stroke="#0E52AC"/>
<circle cx="783.307" cy="182.315" r="8.88112" stroke="#0E52AC"/>
<circle cx="808.161" cy="156.139" r="12.4205" stroke="#0E52AC"/>
<circle cx="829.99" cy="189.601" r="15.0304" stroke="#0E52AC"/>
<circle cx="785.012" cy="258.225" r="10.5859" stroke="#0E52AC"/>
<circle cx="826.155" cy="250.578" r="16.2771" stroke="#0E52AC"/>
<circle cx="859.65" cy="221.678" r="11.623" stroke="#0E52AC"/>
<circle cx="873.447" cy="185.396" r="11.623" stroke="#0E52AC"/>
<circle cx="842.932" cy="160.269" r="8.87817" stroke="#0E52AC"/>
<circle cx="856.906" cy="263.159" r="8.87817" stroke="#0E52AC"/>
<circle cx="879.518" cy="250.603" r="8.87817" stroke="#0E52AC"/>
<circle cx="920.153" cy="227.851" r="13.7219" stroke="#0E52AC"/>
<circle cx="908.743" cy="196.485" r="6.87018" stroke="#0E52AC"/>
<circle cx="912.652" cy="165.738" r="10.7794" stroke="#0E52AC"/>
<circle cx="928.689" cy="135.301" r="15.225" stroke="#0E52AC"/>
<circle cx="946.448" cy="197.476" r="11.5795" stroke="#0E52AC"/>
<circle cx="911.943" cy="271.556" r="8.46234" stroke="#0E52AC"/>
<circle cx="943.262" cy="263.908" r="14.2384" stroke="#0E52AC"/>
<circle cx="894.188" cy="294.187" r="10.5129" stroke="#0E52AC"/>
<circle cx="863.151" cy="292.129" r="14.5367" stroke="#0E52AC"/>
<circle cx="787.508" cy="289.174" r="13.082" stroke="#0E52AC"/>
<circle cx="822.663" cy="289.316" r="7.46651" stroke="#0E52AC"/>
<circle cx="814.46" cy="216.345" r="7.46651" stroke="#0E52AC"/>
<circle cx="702.123" cy="157.343" r="11.2161" stroke="#0E52AC"/>
<circle cx="724.928" cy="119.787" r="17.1678" stroke="#0E52AC"/>
<circle cx="736.659" cy="79.1156" r="13.3304" stroke="#0E52AC"/>
<circle cx="723.518" cy="46.721" r="15.7581" stroke="#0E52AC"/>
<circle cx="755.564" cy="17.3652" r="12.4687" stroke="#0E52AC"/>
<circle cx="714.594" cy="4.39662" r="9.83412" stroke="#0E52AC"/>
<circle cx="803.777" cy="53.1447" r="13.8752" stroke="#0E52AC"/>
<circle cx="763.495" cy="49.2009" r="9.93133" stroke="#0E52AC"/>
<circle cx="803.777" cy="7.89813" r="9.93133" stroke="#0E52AC"/>
<circle cx="839.738" cy="54.5135" r="7.79869" stroke="#0E52AC"/>
<circle cx="836.65" cy="28.7516" r="4.71055" stroke="#0E52AC"/>
<circle cx="847.071" cy="7.89805" r="4.71055" stroke="#0E52AC"/>
<circle cx="785.012" cy="91.0332" r="10.5859" stroke="#0E52AC"/>
<circle cx="763.777" cy="114.309" r="7.71291" stroke="#0E52AC"/>
<circle cx="753.777" cy="154.4" r="14.1387" stroke="#0E52AC"/>
<circle cx="789.064" cy="130.855" r="9.85744" stroke="#0E52AC"/>
<circle cx="821.082" cy="120.498" r="9.85744" stroke="#0E52AC"/>
<circle cx="818.245" cy="86.1022" r="9.94983" stroke="#0E52AC"/>
<circle cx="852.31" cy="91.0338" r="9.94983" stroke="#0E52AC"/>
<circle cx="871.773" cy="65.2858" r="9.94983" stroke="#0E52AC"/>
<circle cx="867.267" cy="130.136" r="14.4565" stroke="#0E52AC"/>
<circle cx="897.071" cy="114.226" r="7.63037" stroke="#0E52AC"/>
<circle cx="883.899" cy="92.92" r="8.94152" stroke="#0E52AC"/>
<circle cx="862.332" cy="36.7736" r="8.94152" stroke="#0E52AC"/>
<circle cx="953.856" cy="22.5509" r="8.94152" stroke="#0E52AC"/>
<circle cx="883.697" cy="33.2613" r="5.00931" stroke="#0E52AC"/>
<circle cx="880.205" cy="8.36411" r="8.50083" stroke="#0E52AC"/>
<circle cx="908.094" cy="16.5163" r="6.71548" stroke="#0E52AC"/>
<path d="M910.759 65.083C910.759 70.6244 906.066 75.1523 900.233 75.1523C894.399 75.1523 889.706 70.6244 889.706 65.083C889.706 59.5416 894.399 55.0137 900.233 55.0137C906.066 55.0137 910.759 59.5416 910.759 65.083Z" stroke="#0E52AC"/>
<path d="M937.666 49.8408C937.666 55.3822 932.973 59.9102 927.139 59.9102C921.306 59.9102 916.613 55.3822 916.613 49.8408C916.613 44.2994 921.306 39.7715 927.139 39.7715C932.973 39.7715 937.666 44.2994 937.666 49.8408Z" stroke="#0E52AC"/>
<path d="M931.25 86.5549C931.25 90.398 927.993 93.5493 923.931 93.5493C919.869 93.5493 916.613 90.398 916.613 86.5549C916.613 82.7118 919.869 79.5605 923.931 79.5605C927.993 79.5605 931.25 82.7118 931.25 86.5549Z" stroke="#0E52AC"/>
<path d="M965.318 86.1018C965.318 89.9449 962.062 93.0961 958 93.0961C953.938 93.0961 950.682 89.9449 950.682 86.1018C950.682 82.2586 953.938 79.1074 958 79.1074C962.062 79.1074 965.318 82.2586 965.318 86.1018Z" stroke="#0E52AC"/>
<circle cx="593.752" cy="118.956" r="12.4561" stroke="#0E52AC"/>
<circle cx="597.647" cy="158.473" r="8.55902" stroke="#0E52AC"/>
<circle cx="621.298" cy="184.896" r="15.3565" stroke="#0E52AC"/>
<circle cx="583.701" cy="220.11" r="13.4461" stroke="#0E52AC"/>
<circle cx="581.754" cy="194.165" r="11.4987" stroke="#0E52AC"/>
<circle cx="573.233" cy="149.953" r="8.02098" stroke="#0E52AC"/>
<circle cx="634.272" cy="145.093" r="8.02098" stroke="#0E52AC"/>
<circle cx="560.344" cy="61.1962" r="8.91101" stroke="#0E52AC"/>
<circle cx="530.75" cy="49.728" r="6.396" stroke="#0E52AC"/>
<circle cx="558.266" cy="23.5415" r="10.9888" stroke="#0E52AC"/>
<circle cx="524.158" cy="9.30713" r="10.9888" stroke="#0E52AC"/>
<circle cx="416.893" cy="4.23291" r="10.9888" stroke="#0E52AC"/>
<circle cx="175.353" cy="35.6776" r="9.51936" stroke="#0E52AC"/>
<circle cx="16.5442" cy="131.658" r="6.92725" stroke="#0E52AC"/>
<circle cx="280.655" cy="217.202" r="11.5735" stroke="#0E52AC"/>
<circle cx="385.23" cy="219.736" r="11.5735" stroke="#0E52AC"/>
<circle cx="314.497" cy="210.822" r="6.1908" stroke="#0E52AC"/>
<circle cx="355.981" cy="205.943" r="7.90964" stroke="#0E52AC"/>
<circle cx="297.954" cy="190.3" r="7.90964" stroke="#0E52AC"/>
<circle cx="267.09" cy="159.461" r="4.82077" stroke="#0E52AC"/>
<circle cx="236.422" cy="192.573" r="7.81926" stroke="#0E52AC"/>
<circle cx="375.286" cy="248.494" r="8.94922" stroke="#0E52AC"/>
<circle cx="345.326" cy="280.753" r="8.99158" stroke="#0E52AC"/>
<circle cx="343.89" cy="97.9368" r="7.30988" stroke="#0E52AC"/>
<circle cx="336.08" cy="226.529" r="7.30988" stroke="#0E52AC"/>
<circle cx="308.815" cy="255.231" r="12.7821" stroke="#0E52AC"/>
<circle cx="231.101" cy="276.431" r="9.83323" stroke="#0E52AC"/>
<circle cx="187.499" cy="271.973" r="11.1667" stroke="#0E52AC"/>
<circle cx="153.667" cy="256.848" r="11.1667" stroke="#0E52AC"/>
<circle cx="337.162" cy="251.787" r="7.91199" stroke="#0E52AC"/>
<circle cx="413.692" cy="90.3686" r="6.21036" stroke="#0E52AC"/>
<circle cx="466.406" cy="77.8451" r="6.21036" stroke="#0E52AC"/>
<circle cx="268.582" cy="262.647" r="8.82631" stroke="#0E52AC"/>
<circle cx="251.266" cy="232.806" r="7.49005" stroke="#0E52AC"/>
<circle cx="226.68" cy="165.68" r="8.82631" stroke="#0E52AC"/>
<circle cx="173.423" cy="190.251" r="5.49698" stroke="#0E52AC"/>
<circle cx="218.096" cy="243.375" r="10.0686" stroke="#0E52AC"/>
<circle cx="209.774" cy="203.529" r="7.07953" stroke="#0E52AC"/>
<circle cx="185.158" cy="135.067" r="8.82631" stroke="#0E52AC"/>
<circle cx="28.496" cy="6.86" r="13.8541" stroke="#0E52AC"/>
<circle cx="2.58276" cy="40.6841" r="11.0591" stroke="#0E52AC"/>
<circle cx="194.484" cy="95.6911" r="9.55438" stroke="#0E52AC"/>
<circle cx="459.159" cy="4.14092" r="11.0784" stroke="#0E52AC"/>
<circle cx="194.485" cy="167.272" r="8.82631" stroke="#0E52AC"/>
</g>
<defs>
<clipPath id="clip0">
<rect width="958" height="300" rx="30" fill="white"/>
</clipPath>
</defs>
</svg>
