<svg xmlns="http://www.w3.org/2000/svg" version="1.1" xmlns:xlink="http://www.w3.org/1999/xlink" xmlns:svgjs="http://svgjs.com/svgjs" width="1440" height="250" preserveAspectRatio="none" viewBox="0 0 1440 250"><g mask="url(&quot;#SvgjsMask1000&quot;)" fill="none"><rect width="1440" height="250" x="0" y="0" fill="#0e2a47"></rect><path d="M1 250L251 0L401 0L151 250z" fill="url(#SvgjsLinearGradient1001)"></path><path d="M244.60000000000002 250L494.6 0L571.1 0L321.1 250z" fill="url(#SvgjsLinearGradient1001)"></path><path d="M502.20000000000005 250L752.2 0L924.7 0L674.7 250z" fill="url(#SvgjsLinearGradient1001)"></path><path d="M746.8000000000001 250L996.8000000000001 0L1233.8000000000002 0L983.8000000000001 250z" fill="url(#SvgjsLinearGradient1001)"></path><path d="M1419 250L1169 0L989 0L1239 250z" fill="url(#SvgjsLinearGradient1002)"></path><path d="M1171.4 250L921.4000000000001 0L844.9000000000001 0L1094.9 250z" fill="url(#SvgjsLinearGradient1002)"></path><path d="M948.8 250L698.8 0L536.8 0L786.8 250z" fill="url(#SvgjsLinearGradient1002)"></path><path d="M704.1999999999999 250L454.19999999999993 0L113.69999999999993 0L363.69999999999993 250z" fill="url(#SvgjsLinearGradient1002)"></path><path d="M1251.8385071395962 250L1440 61.83850713959623L1440 250z" fill="url(#SvgjsLinearGradient1001)"></path><path d="M0 250L188.16149286040377 250L 0 61.83850713959623z" fill="url(#SvgjsLinearGradient1002)"></path></g><defs><mask id="SvgjsMask1000"><rect width="1440" height="250" fill="#ffffff"></rect></mask><linearGradient x1="0%" y1="100%" x2="100%" y2="0%" id="SvgjsLinearGradient1001"><stop stop-color="rgba(15, 70, 185, 0.2)" offset="0"></stop><stop stop-opacity="0" stop-color="rgba(15, 70, 185, 0.2)" offset="0.66"></stop></linearGradient><linearGradient x1="100%" y1="100%" x2="0%" y2="0%" id="SvgjsLinearGradient1002"><stop stop-color="rgba(15, 70, 185, 0.2)" offset="0"></stop><stop stop-opacity="0" stop-color="rgba(15, 70, 185, 0.2)" offset="0.66"></stop></linearGradient></defs></svg>